<?xml version="1.0" encoding="utf-8" standalone="no"?>
<!DOCTYPE svg PUBLIC "-//W3C//DTD SVG 1.1//EN"
  "http://www.w3.org/Graphics/SVG/1.1/DTD/svg11.dtd">
<svg xmlns:xlink="http://www.w3.org/1999/xlink" width="432pt" height="288pt" viewBox="0 0 432 288" xmlns="http://www.w3.org/2000/svg" version="1.1">
 <metadata>
  <rdf:RDF xmlns:dc="http://purl.org/dc/elements/1.1/" xmlns:cc="http://creativecommons.org/ns#" xmlns:rdf="http://www.w3.org/1999/02/22-rdf-syntax-ns#">
   <cc:Work>
    <dc:type rdf:resource="http://purl.org/dc/dcmitype/StillImage"/>
    <dc:date>2025-04-29T22:56:20.166387</dc:date>
    <dc:format>image/svg+xml</dc:format>
    <dc:creator>
     <cc:Agent>
      <dc:title>Matplotlib v3.10.0, https://matplotlib.org/</dc:title>
     </cc:Agent>
    </dc:creator>
   </cc:Work>
  </rdf:RDF>
 </metadata>
 <defs>
  <style type="text/css">*{stroke-linejoin: round; stroke-linecap: butt}</style>
 </defs>
 <g id="figure_1">
  <g id="patch_1">
   <path d="M 0 288 
L 432 288 
L 432 0 
L 0 0 
z
" style="fill: #ffffff"/>
  </g>
  <g id="axes_1">
   <g id="patch_2">
    <path d="M 54 256.32 
L 259.2 256.32 
L 259.2 34.56 
L 54 34.56 
z
" style="fill: #ffffff"/>
   </g>
   <g id="patch_3">
    <path d="M 126.852192 34.56 
L 126.852192 78.912 
M 161.203086 34.56 
L 161.203086 78.912 
" clip-path="url(#pec7cc913ca)" style="fill: none; stroke: #ffffff; stroke-width: 3; stroke-linejoin: miter"/>
    <path d="M 126.852192 34.56 
L 126.852192 78.912 
M 161.203086 34.56 
L 161.203086 78.912 
" clip-path="url(#pec7cc913ca)" style="fill: none; stroke: #1f77b4; stroke-linejoin: miter"/>
   </g>
   <g id="FillBetweenPolyCollection_1">
    <path d="M 161.203086 34.56 
L 126.852192 34.56 
L 126.852192 78.912 
L 161.203086 78.912 
L 161.203086 78.912 
L 161.203086 34.56 
z
" clip-path="url(#pec7cc913ca)" style="fill: #1f77b4; fill-opacity: 0.5"/>
   </g>
   <g id="patch_4">
    <path d="M 63.327273 78.912 
L 63.327273 256.32 
M 80.50272 78.912 
L 80.50272 256.32 
" clip-path="url(#pec7cc913ca)" style="fill: none; stroke: #ffffff; stroke-width: 3; stroke-linejoin: miter"/>
    <path d="M 63.327273 78.912 
L 63.327273 256.32 
M 80.50272 78.912 
L 80.50272 256.32 
" clip-path="url(#pec7cc913ca)" style="fill: none; stroke: #ff7f0e; stroke-linejoin: miter"/>
   </g>
   <g id="FillBetweenPolyCollection_2">
    <path d="M 80.50272 78.912 
L 63.327273 78.912 
L 63.327273 256.32 
L 80.50272 256.32 
L 80.50272 256.32 
L 80.50272 78.912 
z
" clip-path="url(#pec7cc913ca)" style="fill: #ff7f0e; fill-opacity: 0.5"/>
   </g>
   <g id="patch_5">
    <path d="M 207.552559 78.912 
L 207.552559 197.184 
M 224.728006 78.912 
L 224.728006 197.184 
" clip-path="url(#pec7cc913ca)" style="fill: none; stroke: #ffffff; stroke-width: 3; stroke-linejoin: miter"/>
    <path d="M 207.552559 78.912 
L 207.552559 197.184 
M 224.728006 78.912 
L 224.728006 197.184 
" clip-path="url(#pec7cc913ca)" style="fill: none; stroke: #2ca02c; stroke-linejoin: miter"/>
   </g>
   <g id="FillBetweenPolyCollection_3">
    <path d="M 224.728006 78.912 
L 207.552559 78.912 
L 207.552559 197.184 
L 224.728006 197.184 
L 224.728006 197.184 
L 224.728006 78.912 
z
" clip-path="url(#pec7cc913ca)" style="fill: #2ca02c; fill-opacity: 0.5"/>
   </g>
   <g id="patch_6">
    <path d="M 182.407837 197.184 
L 182.407837 256.32 
M 190.995561 197.184 
L 190.995561 256.32 
" clip-path="url(#pec7cc913ca)" style="fill: none; stroke: #ffffff; stroke-width: 3; stroke-linejoin: miter"/>
    <path d="M 182.407837 197.184 
L 182.407837 256.32 
M 190.995561 197.184 
L 190.995561 256.32 
" clip-path="url(#pec7cc913ca)" style="fill: none; stroke: #d62728; stroke-linejoin: miter"/>
   </g>
   <g id="FillBetweenPolyCollection_4">
    <path d="M 190.995561 197.184 
L 182.407837 197.184 
L 182.407837 256.32 
L 190.995561 256.32 
L 190.995561 256.32 
L 190.995561 197.184 
z
" clip-path="url(#pec7cc913ca)" style="fill: #d62728; fill-opacity: 0.5"/>
   </g>
   <g id="patch_7">
    <path d="M 241.285004 197.184 
L 241.285004 256.32 
M 249.872727 197.184 
L 249.872727 256.32 
" clip-path="url(#pec7cc913ca)" style="fill: none; stroke: #ffffff; stroke-width: 3; stroke-linejoin: miter"/>
    <path d="M 241.285004 197.184 
L 241.285004 256.32 
M 249.872727 197.184 
L 249.872727 256.32 
" clip-path="url(#pec7cc913ca)" style="fill: none; stroke: #9467bd; stroke-linejoin: miter"/>
   </g>
   <g id="FillBetweenPolyCollection_5">
    <path d="M 249.872727 197.184 
L 241.285004 197.184 
L 241.285004 256.32 
L 249.872727 256.32 
L 249.872727 256.32 
L 249.872727 197.184 
z
" clip-path="url(#pec7cc913ca)" style="fill: #9467bd; fill-opacity: 0.5"/>
   </g>
   <g id="matplotlib.axis_1">
    <g id="xtick_1">
     <g id="line2d_1"/>
     <g id="text_1">
      <!-- C -->
      <g transform="translate(68.42359 267.418437) scale(0.1 -0.1)">
       <defs>
        <path id="DejaVuSans-43" d="M 4122 4306 
L 4122 3641 
Q 3803 3938 3442 4084 
Q 3081 4231 2675 4231 
Q 1875 4231 1450 3742 
Q 1025 3253 1025 2328 
Q 1025 1406 1450 917 
Q 1875 428 2675 428 
Q 3081 428 3442 575 
Q 3803 722 4122 1019 
L 4122 359 
Q 3791 134 3420 21 
Q 3050 -91 2638 -91 
Q 1578 -91 968 557 
Q 359 1206 359 2328 
Q 359 3453 968 4101 
Q 1578 4750 2638 4750 
Q 3056 4750 3426 4639 
Q 3797 4528 4122 4306 
z
" transform="scale(0.015625)"/>
       </defs>
       <use xlink:href="#DejaVuSans-43"/>
      </g>
     </g>
    </g>
    <g id="xtick_2">
     <g id="line2d_2"/>
     <g id="text_2">
      <!-- A -->
      <g transform="translate(183.281387 267.418437) scale(0.1 -0.1)">
       <defs>
        <path id="DejaVuSans-41" d="M 2188 4044 
L 1331 1722 
L 3047 1722 
L 2188 4044 
z
M 1831 4666 
L 2547 4666 
L 4325 0 
L 3669 0 
L 3244 1197 
L 1141 1197 
L 716 0 
L 50 0 
L 1831 4666 
z
" transform="scale(0.015625)"/>
       </defs>
       <use xlink:href="#DejaVuSans-41"/>
      </g>
     </g>
    </g>
    <g id="xtick_3">
     <g id="line2d_3"/>
     <g id="text_3">
      <!-- B -->
      <g transform="translate(242.148397 267.418437) scale(0.1 -0.1)">
       <defs>
        <path id="DejaVuSans-42" d="M 1259 2228 
L 1259 519 
L 2272 519 
Q 2781 519 3026 730 
Q 3272 941 3272 1375 
Q 3272 1813 3026 2020 
Q 2781 2228 2272 2228 
L 1259 2228 
z
M 1259 4147 
L 1259 2741 
L 2194 2741 
Q 2656 2741 2882 2914 
Q 3109 3088 3109 3444 
Q 3109 3797 2882 3972 
Q 2656 4147 2194 4147 
L 1259 4147 
z
M 628 4666 
L 2241 4666 
Q 2963 4666 3353 4366 
Q 3744 4066 3744 3513 
Q 3744 3084 3544 2831 
Q 3344 2578 2956 2516 
Q 3422 2416 3680 2098 
Q 3938 1781 3938 1306 
Q 3938 681 3513 340 
Q 3088 0 2303 0 
L 628 0 
L 628 4666 
z
" transform="scale(0.015625)"/>
       </defs>
       <use xlink:href="#DejaVuSans-42"/>
      </g>
     </g>
    </g>
   </g>
   <g id="matplotlib.axis_2">
    <g id="ytick_1">
     <g id="line2d_4">
      <defs>
       <path id="m2183a6de73" d="M 0 0 
L -3.5 0 
" style="stroke: #000000; stroke-width: 0.8"/>
      </defs>
      <g>
       <use xlink:href="#m2183a6de73" x="54" y="256.32" style="stroke: #000000; stroke-width: 0.8"/>
      </g>
     </g>
     <g id="text_4">
      <!-- 0.0 -->
      <g transform="translate(31.096875 260.119219) scale(0.1 -0.1)">
       <defs>
        <path id="DejaVuSans-30" d="M 2034 4250 
Q 1547 4250 1301 3770 
Q 1056 3291 1056 2328 
Q 1056 1369 1301 889 
Q 1547 409 2034 409 
Q 2525 409 2770 889 
Q 3016 1369 3016 2328 
Q 3016 3291 2770 3770 
Q 2525 4250 2034 4250 
z
M 2034 4750 
Q 2819 4750 3233 4129 
Q 3647 3509 3647 2328 
Q 3647 1150 3233 529 
Q 2819 -91 2034 -91 
Q 1250 -91 836 529 
Q 422 1150 422 2328 
Q 422 3509 836 4129 
Q 1250 4750 2034 4750 
z
" transform="scale(0.015625)"/>
        <path id="DejaVuSans-2e" d="M 684 794 
L 1344 794 
L 1344 0 
L 684 0 
L 684 794 
z
" transform="scale(0.015625)"/>
       </defs>
       <use xlink:href="#DejaVuSans-30"/>
       <use xlink:href="#DejaVuSans-2e" transform="translate(63.623047 0)"/>
       <use xlink:href="#DejaVuSans-30" transform="translate(95.410156 0)"/>
      </g>
     </g>
    </g>
    <g id="ytick_2">
     <g id="line2d_5">
      <g>
       <use xlink:href="#m2183a6de73" x="54" y="226.752" style="stroke: #000000; stroke-width: 0.8"/>
      </g>
     </g>
     <g id="text_5">
      <!-- 0.5 -->
      <g transform="translate(31.096875 230.551219) scale(0.1 -0.1)">
       <defs>
        <path id="DejaVuSans-35" d="M 691 4666 
L 3169 4666 
L 3169 4134 
L 1269 4134 
L 1269 2991 
Q 1406 3038 1543 3061 
Q 1681 3084 1819 3084 
Q 2600 3084 3056 2656 
Q 3513 2228 3513 1497 
Q 3513 744 3044 326 
Q 2575 -91 1722 -91 
Q 1428 -91 1123 -41 
Q 819 9 494 109 
L 494 744 
Q 775 591 1075 516 
Q 1375 441 1709 441 
Q 2250 441 2565 725 
Q 2881 1009 2881 1497 
Q 2881 1984 2565 2268 
Q 2250 2553 1709 2553 
Q 1456 2553 1204 2497 
Q 953 2441 691 2322 
L 691 4666 
z
" transform="scale(0.015625)"/>
       </defs>
       <use xlink:href="#DejaVuSans-30"/>
       <use xlink:href="#DejaVuSans-2e" transform="translate(63.623047 0)"/>
       <use xlink:href="#DejaVuSans-35" transform="translate(95.410156 0)"/>
      </g>
     </g>
    </g>
    <g id="ytick_3">
     <g id="line2d_6">
      <g>
       <use xlink:href="#m2183a6de73" x="54" y="197.184" style="stroke: #000000; stroke-width: 0.8"/>
      </g>
     </g>
     <g id="text_6">
      <!-- 1.0 -->
      <g transform="translate(31.096875 200.983219) scale(0.1 -0.1)">
       <defs>
        <path id="DejaVuSans-31" d="M 794 531 
L 1825 531 
L 1825 4091 
L 703 3866 
L 703 4441 
L 1819 4666 
L 2450 4666 
L 2450 531 
L 3481 531 
L 3481 0 
L 794 0 
L 794 531 
z
" transform="scale(0.015625)"/>
       </defs>
       <use xlink:href="#DejaVuSans-31"/>
       <use xlink:href="#DejaVuSans-2e" transform="translate(63.623047 0)"/>
       <use xlink:href="#DejaVuSans-30" transform="translate(95.410156 0)"/>
      </g>
     </g>
    </g>
    <g id="ytick_4">
     <g id="line2d_7">
      <g>
       <use xlink:href="#m2183a6de73" x="54" y="167.616" style="stroke: #000000; stroke-width: 0.8"/>
      </g>
     </g>
     <g id="text_7">
      <!-- 1.5 -->
      <g transform="translate(31.096875 171.415219) scale(0.1 -0.1)">
       <use xlink:href="#DejaVuSans-31"/>
       <use xlink:href="#DejaVuSans-2e" transform="translate(63.623047 0)"/>
       <use xlink:href="#DejaVuSans-35" transform="translate(95.410156 0)"/>
      </g>
     </g>
    </g>
    <g id="ytick_5">
     <g id="line2d_8">
      <g>
       <use xlink:href="#m2183a6de73" x="54" y="138.048" style="stroke: #000000; stroke-width: 0.8"/>
      </g>
     </g>
     <g id="text_8">
      <!-- 2.0 -->
      <g transform="translate(31.096875 141.847219) scale(0.1 -0.1)">
       <defs>
        <path id="DejaVuSans-32" d="M 1228 531 
L 3431 531 
L 3431 0 
L 469 0 
L 469 531 
Q 828 903 1448 1529 
Q 2069 2156 2228 2338 
Q 2531 2678 2651 2914 
Q 2772 3150 2772 3378 
Q 2772 3750 2511 3984 
Q 2250 4219 1831 4219 
Q 1534 4219 1204 4116 
Q 875 4013 500 3803 
L 500 4441 
Q 881 4594 1212 4672 
Q 1544 4750 1819 4750 
Q 2544 4750 2975 4387 
Q 3406 4025 3406 3419 
Q 3406 3131 3298 2873 
Q 3191 2616 2906 2266 
Q 2828 2175 2409 1742 
Q 1991 1309 1228 531 
z
" transform="scale(0.015625)"/>
       </defs>
       <use xlink:href="#DejaVuSans-32"/>
       <use xlink:href="#DejaVuSans-2e" transform="translate(63.623047 0)"/>
       <use xlink:href="#DejaVuSans-30" transform="translate(95.410156 0)"/>
      </g>
     </g>
    </g>
    <g id="ytick_6">
     <g id="line2d_9">
      <g>
       <use xlink:href="#m2183a6de73" x="54" y="108.48" style="stroke: #000000; stroke-width: 0.8"/>
      </g>
     </g>
     <g id="text_9">
      <!-- 2.5 -->
      <g transform="translate(31.096875 112.279219) scale(0.1 -0.1)">
       <use xlink:href="#DejaVuSans-32"/>
       <use xlink:href="#DejaVuSans-2e" transform="translate(63.623047 0)"/>
       <use xlink:href="#DejaVuSans-35" transform="translate(95.410156 0)"/>
      </g>
     </g>
    </g>
    <g id="ytick_7">
     <g id="line2d_10">
      <g>
       <use xlink:href="#m2183a6de73" x="54" y="78.912" style="stroke: #000000; stroke-width: 0.8"/>
      </g>
     </g>
     <g id="text_10">
      <!-- 3.0 -->
      <g transform="translate(31.096875 82.711219) scale(0.1 -0.1)">
       <defs>
        <path id="DejaVuSans-33" d="M 2597 2516 
Q 3050 2419 3304 2112 
Q 3559 1806 3559 1356 
Q 3559 666 3084 287 
Q 2609 -91 1734 -91 
Q 1441 -91 1130 -33 
Q 819 25 488 141 
L 488 750 
Q 750 597 1062 519 
Q 1375 441 1716 441 
Q 2309 441 2620 675 
Q 2931 909 2931 1356 
Q 2931 1769 2642 2001 
Q 2353 2234 1838 2234 
L 1294 2234 
L 1294 2753 
L 1863 2753 
Q 2328 2753 2575 2939 
Q 2822 3125 2822 3475 
Q 2822 3834 2567 4026 
Q 2313 4219 1838 4219 
Q 1578 4219 1281 4162 
Q 984 4106 628 3988 
L 628 4550 
Q 988 4650 1302 4700 
Q 1616 4750 1894 4750 
Q 2613 4750 3031 4423 
Q 3450 4097 3450 3541 
Q 3450 3153 3228 2886 
Q 3006 2619 2597 2516 
z
" transform="scale(0.015625)"/>
       </defs>
       <use xlink:href="#DejaVuSans-33"/>
       <use xlink:href="#DejaVuSans-2e" transform="translate(63.623047 0)"/>
       <use xlink:href="#DejaVuSans-30" transform="translate(95.410156 0)"/>
      </g>
     </g>
    </g>
    <g id="ytick_8">
     <g id="line2d_11">
      <g>
       <use xlink:href="#m2183a6de73" x="54" y="49.344" style="stroke: #000000; stroke-width: 0.8"/>
      </g>
     </g>
     <g id="text_11">
      <!-- 3.5 -->
      <g transform="translate(31.096875 53.143219) scale(0.1 -0.1)">
       <use xlink:href="#DejaVuSans-33"/>
       <use xlink:href="#DejaVuSans-2e" transform="translate(63.623047 0)"/>
       <use xlink:href="#DejaVuSans-35" transform="translate(95.410156 0)"/>
      </g>
     </g>
    </g>
    <g id="text_12">
     <!-- time ago (generations) -->
     <g transform="translate(25.017187 202.911094) rotate(-90) scale(0.1 -0.1)">
      <defs>
       <path id="DejaVuSans-74" d="M 1172 4494 
L 1172 3500 
L 2356 3500 
L 2356 3053 
L 1172 3053 
L 1172 1153 
Q 1172 725 1289 603 
Q 1406 481 1766 481 
L 2356 481 
L 2356 0 
L 1766 0 
Q 1100 0 847 248 
Q 594 497 594 1153 
L 594 3053 
L 172 3053 
L 172 3500 
L 594 3500 
L 594 4494 
L 1172 4494 
z
" transform="scale(0.015625)"/>
       <path id="DejaVuSans-69" d="M 603 3500 
L 1178 3500 
L 1178 0 
L 603 0 
L 603 3500 
z
M 603 4863 
L 1178 4863 
L 1178 4134 
L 603 4134 
L 603 4863 
z
" transform="scale(0.015625)"/>
       <path id="DejaVuSans-6d" d="M 3328 2828 
Q 3544 3216 3844 3400 
Q 4144 3584 4550 3584 
Q 5097 3584 5394 3201 
Q 5691 2819 5691 2113 
L 5691 0 
L 5113 0 
L 5113 2094 
Q 5113 2597 4934 2840 
Q 4756 3084 4391 3084 
Q 3944 3084 3684 2787 
Q 3425 2491 3425 1978 
L 3425 0 
L 2847 0 
L 2847 2094 
Q 2847 2600 2669 2842 
Q 2491 3084 2119 3084 
Q 1678 3084 1418 2786 
Q 1159 2488 1159 1978 
L 1159 0 
L 581 0 
L 581 3500 
L 1159 3500 
L 1159 2956 
Q 1356 3278 1631 3431 
Q 1906 3584 2284 3584 
Q 2666 3584 2933 3390 
Q 3200 3197 3328 2828 
z
" transform="scale(0.015625)"/>
       <path id="DejaVuSans-65" d="M 3597 1894 
L 3597 1613 
L 953 1613 
Q 991 1019 1311 708 
Q 1631 397 2203 397 
Q 2534 397 2845 478 
Q 3156 559 3463 722 
L 3463 178 
Q 3153 47 2828 -22 
Q 2503 -91 2169 -91 
Q 1331 -91 842 396 
Q 353 884 353 1716 
Q 353 2575 817 3079 
Q 1281 3584 2069 3584 
Q 2775 3584 3186 3129 
Q 3597 2675 3597 1894 
z
M 3022 2063 
Q 3016 2534 2758 2815 
Q 2500 3097 2075 3097 
Q 1594 3097 1305 2825 
Q 1016 2553 972 2059 
L 3022 2063 
z
" transform="scale(0.015625)"/>
       <path id="DejaVuSans-20" transform="scale(0.015625)"/>
       <path id="DejaVuSans-61" d="M 2194 1759 
Q 1497 1759 1228 1600 
Q 959 1441 959 1056 
Q 959 750 1161 570 
Q 1363 391 1709 391 
Q 2188 391 2477 730 
Q 2766 1069 2766 1631 
L 2766 1759 
L 2194 1759 
z
M 3341 1997 
L 3341 0 
L 2766 0 
L 2766 531 
Q 2569 213 2275 61 
Q 1981 -91 1556 -91 
Q 1019 -91 701 211 
Q 384 513 384 1019 
Q 384 1609 779 1909 
Q 1175 2209 1959 2209 
L 2766 2209 
L 2766 2266 
Q 2766 2663 2505 2880 
Q 2244 3097 1772 3097 
Q 1472 3097 1187 3025 
Q 903 2953 641 2809 
L 641 3341 
Q 956 3463 1253 3523 
Q 1550 3584 1831 3584 
Q 2591 3584 2966 3190 
Q 3341 2797 3341 1997 
z
" transform="scale(0.015625)"/>
       <path id="DejaVuSans-67" d="M 2906 1791 
Q 2906 2416 2648 2759 
Q 2391 3103 1925 3103 
Q 1463 3103 1205 2759 
Q 947 2416 947 1791 
Q 947 1169 1205 825 
Q 1463 481 1925 481 
Q 2391 481 2648 825 
Q 2906 1169 2906 1791 
z
M 3481 434 
Q 3481 -459 3084 -895 
Q 2688 -1331 1869 -1331 
Q 1566 -1331 1297 -1286 
Q 1028 -1241 775 -1147 
L 775 -588 
Q 1028 -725 1275 -790 
Q 1522 -856 1778 -856 
Q 2344 -856 2625 -561 
Q 2906 -266 2906 331 
L 2906 616 
Q 2728 306 2450 153 
Q 2172 0 1784 0 
Q 1141 0 747 490 
Q 353 981 353 1791 
Q 353 2603 747 3093 
Q 1141 3584 1784 3584 
Q 2172 3584 2450 3431 
Q 2728 3278 2906 2969 
L 2906 3500 
L 3481 3500 
L 3481 434 
z
" transform="scale(0.015625)"/>
       <path id="DejaVuSans-6f" d="M 1959 3097 
Q 1497 3097 1228 2736 
Q 959 2375 959 1747 
Q 959 1119 1226 758 
Q 1494 397 1959 397 
Q 2419 397 2687 759 
Q 2956 1122 2956 1747 
Q 2956 2369 2687 2733 
Q 2419 3097 1959 3097 
z
M 1959 3584 
Q 2709 3584 3137 3096 
Q 3566 2609 3566 1747 
Q 3566 888 3137 398 
Q 2709 -91 1959 -91 
Q 1206 -91 779 398 
Q 353 888 353 1747 
Q 353 2609 779 3096 
Q 1206 3584 1959 3584 
z
" transform="scale(0.015625)"/>
       <path id="DejaVuSans-28" d="M 1984 4856 
Q 1566 4138 1362 3434 
Q 1159 2731 1159 2009 
Q 1159 1288 1364 580 
Q 1569 -128 1984 -844 
L 1484 -844 
Q 1016 -109 783 600 
Q 550 1309 550 2009 
Q 550 2706 781 3412 
Q 1013 4119 1484 4856 
L 1984 4856 
z
" transform="scale(0.015625)"/>
       <path id="DejaVuSans-6e" d="M 3513 2113 
L 3513 0 
L 2938 0 
L 2938 2094 
Q 2938 2591 2744 2837 
Q 2550 3084 2163 3084 
Q 1697 3084 1428 2787 
Q 1159 2491 1159 1978 
L 1159 0 
L 581 0 
L 581 3500 
L 1159 3500 
L 1159 2956 
Q 1366 3272 1645 3428 
Q 1925 3584 2291 3584 
Q 2894 3584 3203 3211 
Q 3513 2838 3513 2113 
z
" transform="scale(0.015625)"/>
       <path id="DejaVuSans-72" d="M 2631 2963 
Q 2534 3019 2420 3045 
Q 2306 3072 2169 3072 
Q 1681 3072 1420 2755 
Q 1159 2438 1159 1844 
L 1159 0 
L 581 0 
L 581 3500 
L 1159 3500 
L 1159 2956 
Q 1341 3275 1631 3429 
Q 1922 3584 2338 3584 
Q 2397 3584 2469 3576 
Q 2541 3569 2628 3553 
L 2631 2963 
z
" transform="scale(0.015625)"/>
       <path id="DejaVuSans-73" d="M 2834 3397 
L 2834 2853 
Q 2591 2978 2328 3040 
Q 2066 3103 1784 3103 
Q 1356 3103 1142 2972 
Q 928 2841 928 2578 
Q 928 2378 1081 2264 
Q 1234 2150 1697 2047 
L 1894 2003 
Q 2506 1872 2764 1633 
Q 3022 1394 3022 966 
Q 3022 478 2636 193 
Q 2250 -91 1575 -91 
Q 1294 -91 989 -36 
Q 684 19 347 128 
L 347 722 
Q 666 556 975 473 
Q 1284 391 1588 391 
Q 1994 391 2212 530 
Q 2431 669 2431 922 
Q 2431 1156 2273 1281 
Q 2116 1406 1581 1522 
L 1381 1569 
Q 847 1681 609 1914 
Q 372 2147 372 2553 
Q 372 3047 722 3315 
Q 1072 3584 1716 3584 
Q 2034 3584 2315 3537 
Q 2597 3491 2834 3397 
z
" transform="scale(0.015625)"/>
       <path id="DejaVuSans-29" d="M 513 4856 
L 1013 4856 
Q 1481 4119 1714 3412 
Q 1947 2706 1947 2009 
Q 1947 1309 1714 600 
Q 1481 -109 1013 -844 
L 513 -844 
Q 928 -128 1133 580 
Q 1338 1288 1338 2009 
Q 1338 2731 1133 3434 
Q 928 4138 513 4856 
z
" transform="scale(0.015625)"/>
      </defs>
      <use xlink:href="#DejaVuSans-74"/>
      <use xlink:href="#DejaVuSans-69" transform="translate(39.208984 0)"/>
      <use xlink:href="#DejaVuSans-6d" transform="translate(66.992188 0)"/>
      <use xlink:href="#DejaVuSans-65" transform="translate(164.404297 0)"/>
      <use xlink:href="#DejaVuSans-20" transform="translate(225.927734 0)"/>
      <use xlink:href="#DejaVuSans-61" transform="translate(257.714844 0)"/>
      <use xlink:href="#DejaVuSans-67" transform="translate(318.994141 0)"/>
      <use xlink:href="#DejaVuSans-6f" transform="translate(382.470703 0)"/>
      <use xlink:href="#DejaVuSans-20" transform="translate(443.652344 0)"/>
      <use xlink:href="#DejaVuSans-28" transform="translate(475.439453 0)"/>
      <use xlink:href="#DejaVuSans-67" transform="translate(514.453125 0)"/>
      <use xlink:href="#DejaVuSans-65" transform="translate(577.929688 0)"/>
      <use xlink:href="#DejaVuSans-6e" transform="translate(639.453125 0)"/>
      <use xlink:href="#DejaVuSans-65" transform="translate(702.832031 0)"/>
      <use xlink:href="#DejaVuSans-72" transform="translate(764.355469 0)"/>
      <use xlink:href="#DejaVuSans-61" transform="translate(805.46875 0)"/>
      <use xlink:href="#DejaVuSans-74" transform="translate(866.748047 0)"/>
      <use xlink:href="#DejaVuSans-69" transform="translate(905.957031 0)"/>
      <use xlink:href="#DejaVuSans-6f" transform="translate(933.740234 0)"/>
      <use xlink:href="#DejaVuSans-6e" transform="translate(994.921875 0)"/>
      <use xlink:href="#DejaVuSans-73" transform="translate(1058.300781 0)"/>
      <use xlink:href="#DejaVuSans-29" transform="translate(1110.400391 0)"/>
     </g>
    </g>
    <g id="text_13">
     <!-- 1e6 -->
     <g transform="translate(54 31.56) scale(0.1 -0.1)">
      <defs>
       <path id="DejaVuSans-36" d="M 2113 2584 
Q 1688 2584 1439 2293 
Q 1191 2003 1191 1497 
Q 1191 994 1439 701 
Q 1688 409 2113 409 
Q 2538 409 2786 701 
Q 3034 994 3034 1497 
Q 3034 2003 2786 2293 
Q 2538 2584 2113 2584 
z
M 3366 4563 
L 3366 3988 
Q 3128 4100 2886 4159 
Q 2644 4219 2406 4219 
Q 1781 4219 1451 3797 
Q 1122 3375 1075 2522 
Q 1259 2794 1537 2939 
Q 1816 3084 2150 3084 
Q 2853 3084 3261 2657 
Q 3669 2231 3669 1497 
Q 3669 778 3244 343 
Q 2819 -91 2113 -91 
Q 1303 -91 875 529 
Q 447 1150 447 2328 
Q 447 3434 972 4092 
Q 1497 4750 2381 4750 
Q 2619 4750 2861 4703 
Q 3103 4656 3366 4563 
z
" transform="scale(0.015625)"/>
      </defs>
      <use xlink:href="#DejaVuSans-31"/>
      <use xlink:href="#DejaVuSans-65" transform="translate(63.623047 0)"/>
      <use xlink:href="#DejaVuSans-36" transform="translate(125.146484 0)"/>
     </g>
    </g>
   </g>
   <g id="patch_8">
    <path d="M 124.852126 78.912 
L 123.852126 78.880564 
L 122.852126 78.843623 
L 121.852126 78.745877 
L 120.852126 78.713355 
L 119.852126 78.63973 
L 118.852126 78.601165 
L 117.852126 78.565752 
L 116.852126 78.508112 
L 115.852126 78.437726 
L 114.852126 78.385761 
L 113.852126 78.326672 
L 112.852126 78.238351 
L 111.852126 78.192206 
L 110.852126 78.149795 
L 109.852126 78.119303 
L 108.852126 78.093258 
L 107.852126 78.072058 
L 106.852126 78.017757 
L 105.852126 77.989819 
L 104.852126 77.960095 
L 103.852126 77.9347 
L 102.852126 77.9235 
L 101.852126 77.913376 
L 100.852126 77.91358 
L 99.852126 77.92309 
L 98.852126 77.934744 
L 97.852126 77.965773 
L 96.852126 77.976941 
L 95.852126 78.007058 
L 94.852126 78.066835 
L 93.852126 78.104027 
L 92.852126 78.143123 
L 91.852126 78.185563 
L 90.852126 78.218328 
L 89.852126 78.285754 
L 88.852126 78.32488 
L 87.852126 78.367555 
L 86.852126 78.438135 
L 85.852126 78.474526 
L 84.852126 78.532929 
L 83.621133 78.643882 
" clip-path="url(#pec7cc913ca)" style="fill: none; stroke: #ffffff; stroke-width: 3; stroke-linecap: round"/>
    <path d="M 124.852126 78.912 
L 123.852126 78.880564 
L 122.852126 78.843623 
L 121.852126 78.745877 
L 120.852126 78.713355 
L 119.852126 78.63973 
L 118.852126 78.601165 
L 117.852126 78.565752 
L 116.852126 78.508112 
L 115.852126 78.437726 
L 114.852126 78.385761 
L 113.852126 78.326672 
L 112.852126 78.238351 
L 111.852126 78.192206 
L 110.852126 78.149795 
L 109.852126 78.119303 
L 108.852126 78.093258 
L 107.852126 78.072058 
L 106.852126 78.017757 
L 105.852126 77.989819 
L 104.852126 77.960095 
L 103.852126 77.9347 
L 102.852126 77.9235 
L 101.852126 77.913376 
L 100.852126 77.91358 
L 99.852126 77.92309 
L 98.852126 77.934744 
L 97.852126 77.965773 
L 96.852126 77.976941 
L 95.852126 78.007058 
L 94.852126 78.066835 
L 93.852126 78.104027 
L 92.852126 78.143123 
L 91.852126 78.185563 
L 90.852126 78.218328 
L 89.852126 78.285754 
L 88.852126 78.32488 
L 87.852126 78.367555 
L 86.852126 78.438135 
L 85.852126 78.474526 
L 84.852126 78.532929 
L 83.621133 78.643882 
" clip-path="url(#pec7cc913ca)" style="fill: none; stroke: #1f77b4; stroke-linecap: round"/>
    <path d="M 87.621133 80.912 
L 86.740765 80.436669 
L 85.862858 79.956415 
L 85.012144 79.421774 
L 83.70997 78.734327 
L 84.637323 78.708312 
L 85.548997 78.295592 
L 86.459262 77.880053 
L 87.801757 77.273249 
L 87.146859 77.912 
L 87.094894 78.912 
L 87.035805 80.912 
z
" clip-path="url(#pec7cc913ca)" style="fill: #ffffff; stroke: #ffffff; stroke-width: 3; stroke-linecap: round"/>
    <path d="M 87.621133 80.912 
L 86.740765 80.436669 
L 85.862858 79.956415 
L 85.012144 79.421774 
L 83.70997 78.734327 
L 84.637323 78.708312 
L 85.548997 78.295592 
L 86.459262 77.880053 
L 87.801757 77.273249 
L 87.146859 77.912 
L 87.094894 78.912 
L 87.035805 80.912 
z
" clip-path="url(#pec7cc913ca)" style="fill: #ffffff; stroke: #1f77b4; stroke-linecap: round"/>
   </g>
   <g id="patch_9">
    <path d="M 163.203152 78.912 
L 164.203152 78.943436 
L 165.203152 78.980377 
L 166.203152 79.078123 
L 167.203152 79.110645 
L 168.203152 79.18427 
L 169.203152 79.222835 
L 170.203152 79.258248 
L 171.203152 79.315888 
L 172.203152 79.386274 
L 173.203152 79.438239 
L 174.203152 79.497328 
L 175.203152 79.585649 
L 176.203152 79.631794 
L 177.203152 79.674205 
L 178.203152 79.704697 
L 179.203152 79.730742 
L 180.203152 79.751942 
L 181.203152 79.806243 
L 182.203152 79.834181 
L 183.203152 79.863905 
L 184.203152 79.8893 
L 185.203152 79.9005 
L 186.203152 79.910624 
L 187.203152 79.91042 
L 188.203152 79.90091 
L 189.203152 79.889256 
L 190.203152 79.858227 
L 191.203152 79.847059 
L 192.203152 79.816942 
L 193.203152 79.757165 
L 194.203152 79.719973 
L 195.203152 79.680877 
L 196.203152 79.638437 
L 197.203152 79.605672 
L 198.203152 79.538246 
L 199.203152 79.49912 
L 200.203152 79.456445 
L 201.203152 79.385865 
L 202.203152 79.349474 
L 203.203152 79.291071 
L 204.434146 79.180118 
" clip-path="url(#pec7cc913ca)" style="fill: none; stroke: #ffffff; stroke-width: 3; stroke-linecap: round"/>
    <path d="M 163.203152 78.912 
L 164.203152 78.943436 
L 165.203152 78.980377 
L 166.203152 79.078123 
L 167.203152 79.110645 
L 168.203152 79.18427 
L 169.203152 79.222835 
L 170.203152 79.258248 
L 171.203152 79.315888 
L 172.203152 79.386274 
L 173.203152 79.438239 
L 174.203152 79.497328 
L 175.203152 79.585649 
L 176.203152 79.631794 
L 177.203152 79.674205 
L 178.203152 79.704697 
L 179.203152 79.730742 
L 180.203152 79.751942 
L 181.203152 79.806243 
L 182.203152 79.834181 
L 183.203152 79.863905 
L 184.203152 79.8893 
L 185.203152 79.9005 
L 186.203152 79.910624 
L 187.203152 79.91042 
L 188.203152 79.90091 
L 189.203152 79.889256 
L 190.203152 79.858227 
L 191.203152 79.847059 
L 192.203152 79.816942 
L 193.203152 79.757165 
L 194.203152 79.719973 
L 195.203152 79.680877 
L 196.203152 79.638437 
L 197.203152 79.605672 
L 198.203152 79.538246 
L 199.203152 79.49912 
L 200.203152 79.456445 
L 201.203152 79.385865 
L 202.203152 79.349474 
L 203.203152 79.291071 
L 204.434146 79.180118 
" clip-path="url(#pec7cc913ca)" style="fill: none; stroke: #1f77b4; stroke-linecap: round"/>
    <path d="M 200.434146 76.912 
L 201.314514 77.387331 
L 202.192421 77.867585 
L 203.043135 78.402226 
L 204.345309 79.089673 
L 203.417956 79.115688 
L 202.506281 79.528408 
L 201.596017 79.943947 
L 200.253521 80.550751 
L 200.90842 79.912 
L 200.960384 78.912 
L 201.019474 76.912 
z
" clip-path="url(#pec7cc913ca)" style="fill: #ffffff; stroke: #ffffff; stroke-width: 3; stroke-linecap: round"/>
    <path d="M 200.434146 76.912 
L 201.314514 77.387331 
L 202.192421 77.867585 
L 203.043135 78.402226 
L 204.345309 79.089673 
L 203.417956 79.115688 
L 202.506281 79.528408 
L 201.596017 79.943947 
L 200.253521 80.550751 
L 200.90842 79.912 
L 200.960384 78.912 
L 201.019474 76.912 
z
" clip-path="url(#pec7cc913ca)" style="fill: #ffffff; stroke: #1f77b4; stroke-linecap: round"/>
   </g>
   <g id="patch_10">
    <path d="M 205.551652 197.184 
L 204.551652 197.152564 
L 203.551652 197.115623 
L 202.551652 197.017877 
L 201.551652 196.985355 
L 200.551652 196.91173 
L 199.551652 196.873165 
L 198.551652 196.837752 
L 197.551652 196.780112 
L 196.551652 196.709726 
L 195.551652 196.657761 
L 194.114347 196.598672 
" clip-path="url(#pec7cc913ca)" style="fill: none; stroke: #ffffff; stroke-width: 3; stroke-linecap: round"/>
    <path d="M 205.551652 197.184 
L 204.551652 197.152564 
L 203.551652 197.115623 
L 202.551652 197.017877 
L 201.551652 196.985355 
L 200.551652 196.91173 
L 199.551652 196.873165 
L 198.551652 196.837752 
L 197.551652 196.780112 
L 196.551652 196.709726 
L 195.551652 196.657761 
L 194.114347 196.598672 
" clip-path="url(#pec7cc913ca)" style="fill: none; stroke: #2ca02c; stroke-linecap: round"/>
    <path d="M 198.114347 199.184 
L 197.233978 198.708669 
L 196.356071 198.228415 
L 195.505358 197.693774 
L 194.203183 197.006327 
L 195.130536 196.980312 
L 196.042211 196.567592 
L 196.952475 196.152053 
L 198.294971 195.545249 
L 197.640072 196.184 
L 197.588108 197.184 
L 197.529018 199.184 
z
" clip-path="url(#pec7cc913ca)" style="fill: #ffffff; stroke: #ffffff; stroke-width: 3; stroke-linecap: round"/>
    <path d="M 198.114347 199.184 
L 197.233978 198.708669 
L 196.356071 198.228415 
L 195.505358 197.693774 
L 194.203183 197.006327 
L 195.130536 196.980312 
L 196.042211 196.567592 
L 196.952475 196.152053 
L 198.294971 195.545249 
L 197.640072 196.184 
L 197.588108 197.184 
L 197.529018 199.184 
z
" clip-path="url(#pec7cc913ca)" style="fill: #ffffff; stroke: #2ca02c; stroke-linecap: round"/>
   </g>
   <g id="patch_11">
    <path d="M 226.728913 197.184 
L 227.728913 197.215436 
L 228.728913 197.252377 
L 229.728913 197.350123 
L 230.728913 197.382645 
L 231.728913 197.45627 
L 232.728913 197.494835 
L 233.728913 197.530248 
L 234.728913 197.587888 
L 235.728913 197.658274 
L 236.728913 197.710239 
L 238.166218 197.769328 
" clip-path="url(#pec7cc913ca)" style="fill: none; stroke: #ffffff; stroke-width: 3; stroke-linecap: round"/>
    <path d="M 226.728913 197.184 
L 227.728913 197.215436 
L 228.728913 197.252377 
L 229.728913 197.350123 
L 230.728913 197.382645 
L 231.728913 197.45627 
L 232.728913 197.494835 
L 233.728913 197.530248 
L 234.728913 197.587888 
L 235.728913 197.658274 
L 236.728913 197.710239 
L 238.166218 197.769328 
" clip-path="url(#pec7cc913ca)" style="fill: none; stroke: #2ca02c; stroke-linecap: round"/>
    <path d="M 234.166218 195.184 
L 235.046586 195.659331 
L 235.924493 196.139585 
L 236.775207 196.674226 
L 238.077381 197.361673 
L 237.150028 197.387688 
L 236.238354 197.800408 
L 235.328089 198.215947 
L 233.985594 198.822751 
L 234.640492 198.184 
L 234.692457 197.184 
L 234.751546 195.184 
z
" clip-path="url(#pec7cc913ca)" style="fill: #ffffff; stroke: #ffffff; stroke-width: 3; stroke-linecap: round"/>
    <path d="M 234.166218 195.184 
L 235.046586 195.659331 
L 235.924493 196.139585 
L 236.775207 196.674226 
L 238.077381 197.361673 
L 237.150028 197.387688 
L 236.238354 197.800408 
L 235.328089 198.215947 
L 233.985594 198.822751 
L 234.640492 198.184 
L 234.692457 197.184 
L 234.751546 195.184 
z
" clip-path="url(#pec7cc913ca)" style="fill: #ffffff; stroke: #2ca02c; stroke-linecap: round"/>
   </g>
   <g id="patch_12">
    <path d="M 54 256.32 
L 54 34.56 
" style="fill: none; stroke: #000000; stroke-width: 0.8; stroke-linejoin: miter; stroke-linecap: square"/>
   </g>
   <g id="text_14">
    <g id="patch_13">
     <path d="M 133.772952 63.575063 
L 154.282327 63.575063 
Q 156.282327 63.575063 156.282327 61.575063 
L 156.282327 51.896937 
Q 156.282327 49.896937 154.282327 49.896937 
L 133.772952 49.896937 
Q 131.772952 49.896937 131.772952 51.896937 
L 131.772952 61.575063 
Q 131.772952 63.575063 133.772952 63.575063 
z
" style="fill: #ffffff; opacity: 0.6"/>
    </g>
    <!-- ABC -->
    <g transform="translate(133.772952 59.495375) scale(0.1 -0.1)">
     <use xlink:href="#DejaVuSans-41"/>
     <use xlink:href="#DejaVuSans-42" transform="translate(68.408203 0)"/>
     <use xlink:href="#DejaVuSans-43" transform="translate(135.261719 0)"/>
    </g>
   </g>
   <g id="text_15">
    <g id="patch_14">
     <path d="M 209.289501 144.887063 
L 222.991064 144.887063 
Q 224.991064 144.887063 224.991064 142.887063 
L 224.991064 133.208938 
Q 224.991064 131.208938 222.991064 131.208938 
L 209.289501 131.208938 
Q 207.289501 131.208938 207.289501 133.208938 
L 207.289501 142.887063 
Q 207.289501 144.887063 209.289501 144.887063 
z
" style="fill: #ffffff; opacity: 0.6"/>
    </g>
    <!-- AB -->
    <g transform="translate(209.289501 140.807375) scale(0.1 -0.1)">
     <use xlink:href="#DejaVuSans-41"/>
     <use xlink:href="#DejaVuSans-42" transform="translate(68.408203 0)"/>
    </g>
   </g>
  </g>
 </g>
 <defs>
  <clipPath id="pec7cc913ca">
   <rect x="54" y="34.56" width="205.2" height="221.76"/>
  </clipPath>
 </defs>
</svg>
